<?xml version="1.0" standalone="no"?> <!DOCTYPE svg PUBLIC "-//W3C//DTD SVG 1.0//EN" "http://www.w3.org/TR/2001/REC-SVG-20010904/DTD/svg10.dtd" > <svg xmlns="http://www.w3.org/2000/svg" width="100%" height="100%">
<defs >
<font horiz-adv-x="596" ><font-face
    font-family="Viper Squadron Solid"
    units-per-em="1000"
    panose-1="0 0 4 0 0 0 0 0 0 0"
    ascent="800"
    descent="-200"
    alphabetic="0" />
<missing-glyph horiz-adv-x="500" d="M63 0V800H438V0H63ZM125 63H375V738H125V63Z" />
<glyph unicode=" " glyph-name="space" horiz-adv-x="250" />
<glyph unicode="A" glyph-name="A" horiz-adv-x="790" d="M750 0H340L270 160H499L375 440L180 0H0V160H71L310 700H440L750 0Z" />
<glyph unicode="B" glyph-name="B" horiz-adv-x="690" d="M650 215Q650 126 587 63T435 0H0V700H435Q524 700 587 637T650 485Q650 421 592 350Q650 279 650 215ZM490 215Q490 238 474 254T435 270H180L250 430H435Q458 430 474 446T490 485Q490 508 474 524T435
540H160V160H435Q458 160 474 176T490 215Z" />
<glyph unicode="C" glyph-name="C" horiz-adv-x="640" d="M600 0H350Q205 0 103 102T0 350Q0 495 102 597T350 700H600V540H350Q271 540 216 485T160 350Q160 271 215 216T350 160H600V0Z" />
<glyph unicode="D" glyph-name="D" horiz-adv-x="690" d="M650 350Q650 205 548 103T300 0H0V700H300Q445 700 547 598T650 350ZM490 350Q490 429 435 484T300 540H160V160H300Q379 160 434 215T490 350Z" />
<glyph unicode="E" glyph-name="E" horiz-adv-x="640" d="M600 0H0V700H600V540H160V430H500V270H160V160H600V0Z" />
<glyph unicode="F" glyph-name="F" horiz-adv-x="640" d="M600 540H160V430H500V270H160V0H0V700H600V540Z" />
<glyph unicode="G" glyph-name="G" horiz-adv-x="740" d="M700 0H350Q205 0 103 102T0 350Q0 495 102 597T350 700H700V540H350Q271 540 216 485T160 350Q160 271 215 216T350 160H540V270H440L370 430H700V0Z" />
<glyph unicode="H" glyph-name="H" horiz-adv-x="690" d="M650 0H490V270H180L250 430H490V700H650V0ZM160 0H0V700H160V0Z" />
<glyph unicode="I" glyph-name="I" horiz-adv-x="200" d="M160 0H0V700H160V0Z" />
<glyph unicode="J" glyph-name="J" horiz-adv-x="365" d="M325 150Q325 8 231 -96T0 -200V-40Q72 -40 118 17T165 150V700H325V150Z" />
<glyph unicode="K" glyph-name="K" horiz-adv-x="690" d="M650 0H450L239 280L160 200V0H0V700H160V424L430 700H650L352 396L650 0Z" />
<glyph unicode="L" glyph-name="L" horiz-adv-x="640" d="M600 0H0V700H160V160H600V0Z" />
<glyph unicode="M" glyph-name="M" horiz-adv-x="790" d="M750 0H590V317L425 0H325L160 317V0H0V700H160L375 270L590 700H750V0Z" />
<glyph unicode="N" glyph-name="N" horiz-adv-x="690" d="M650 0H490L160 397V0H0V700H160L490 303V700H650V0Z" />
<glyph unicode="O" glyph-name="O" horiz-adv-x="740" d="M700 350Q700 205 598 103T350 0Q205 0 103 102T0 350Q0 495 102 597T350 700Q495 700 597 598T700 350ZM540 350Q540 429 485 484T350 540Q272 540 216 485T160 350Q160 271 216 216T350 160Q429 160
484 215T540 350Z" />
<glyph unicode="P" glyph-name="P" horiz-adv-x="690" d="M650 485Q650 396 587 333T435 270H180L250 430H435Q458 430 474 446T490 485Q490 508 474 524T435 540H160V0H0V700H435Q524 700 587 637T650 485Z" />
<glyph unicode="Q" glyph-name="Q" horiz-adv-x="740" d="M700 0H350Q205 0 103 102T0 350Q0 495 102 597T350 700Q495 700 597 598T700 350Q700 247 644 160H700V0ZM540 350Q540 429 485 484T350 540Q272 540 216 485T160 350Q160 271 216 216T350 160Q429 160
484 215T540 350Z" />
<glyph unicode="R" glyph-name="R" horiz-adv-x="690" d="M650 0H428L180 270L250 430H435Q458 430 474 446T490 485Q490 508 474 524T435 540H160V0H0V700H435Q524 700 587 637T650 485Q650 396 587 333T435 270H399L650 0Z" />
<glyph unicode="S" glyph-name="S" horiz-adv-x="690" d="M650 215Q650 126 587 63T435 0H0V160H435Q458 160 474 176T490 215Q490 238 474 254T435 270H215Q126 270 63 333T0 485Q0 574 63 637T215 700H650V540H215Q192 540 176 524T160 485Q160 462 176 446T215
430H435Q524 430 587 367T650 215Z" />
<glyph unicode="T" glyph-name="T" horiz-adv-x="690" d="M650 540H405V0H245V540H0V700H650V540Z" />
<glyph unicode="U" glyph-name="U" horiz-adv-x="690" d="M650 350Q650 208 556 104T325 0Q187 0 94 104T0 350V700H160V350Q160 274 207 217T325 160Q397 160 443 217T490 350V700H650V350Z" />
<glyph unicode="V" glyph-name="V" horiz-adv-x="790" d="M750 700L440 0H310L0 700H180L375 260L570 700H750Z" />
<glyph unicode="W" glyph-name="W" horiz-adv-x="1090" d="M1050 700L740 0H610L525 192L440 0H310L0 700H180L375 260L435 395L300 700H480L525 598L570 700H750L615 395L675 260L870 700H1050Z" />
<glyph unicode="X" glyph-name="X" horiz-adv-x="740" d="M700 0H500L350 210L200 0H0L250 350L0 700H200L350 490L500 700H700L450 350L700 0Z" />
<glyph unicode="Y" glyph-name="Y" horiz-adv-x="740" d="M700 700L430 325V0H270V325L0 700H200L350 490L500 700H700Z" />
<glyph unicode="Z" glyph-name="Z" horiz-adv-x="690" d="M650 0H0V160L372 540H0V700H650V540L278 160H650V0Z" />
<glyph unicode="a" glyph-name="a" horiz-adv-x="790" d="M750 0H340L270 160H499L375 440L180 0H0L310 700H440L750 0Z" />
<glyph unicode="b" glyph-name="b" horiz-adv-x="690" d="M650 215Q650 126 587 63T435 0H0V700H435Q524 700 587 637T650 485Q650 421 592 350Q650 279 650 215ZM490 215Q490 238 474 254T435 270H180L250 430H435Q458 430 474 446T490 485Q490 508 474 524T435
540H160V160H435Q458 160 474 176T490 215Z" />
<glyph unicode="c" glyph-name="c" horiz-adv-x="640" d="M600 0H350Q205 0 103 102T0 350Q0 495 102 597T350 700H600L530 540H350Q271 540 216 485T160 350Q160 271 215 216T350 160H600V0Z" />
<glyph unicode="d" glyph-name="d" horiz-adv-x="690" d="M650 350Q650 205 548 103T300 0H0V700H300Q445 700 547 598T650 350ZM490 350Q490 429 435 484T300 540H160V160H300Q379 160 434 215T490 350Z" />
<glyph unicode="e" glyph-name="e" horiz-adv-x="640" d="M600 0H0V700H600L530 540H160V430H500V270H160V160H600V0Z" />
<glyph unicode="f" glyph-name="f" horiz-adv-x="640" d="M600 700L530 540H160V430H500V270H160V0H0V700H600Z" />
<glyph unicode="g" glyph-name="g" horiz-adv-x="690" d="M650 0H350Q205 0 103 102T0 350Q0 495 102 597T350 700H650L580 540H350Q271 540 216 485T160 350Q160 271 215 216T350 160H490V270H320L390 430H650V0Z" />
<glyph unicode="h" glyph-name="h" horiz-adv-x="690" d="M650 0H490V270H180L250 430H490V700H650V0ZM160 0H0V700H160V0Z" />
<glyph unicode="i" glyph-name="i" horiz-adv-x="200" d="M160 0H0V700H160V0Z" />
<glyph unicode="j" glyph-name="j" horiz-adv-x="365" d="M325 150Q325 8 231 -96T0 -200V-40Q72 -40 118 17T165 150V700H325V150Z" />
<glyph unicode="k" glyph-name="k" horiz-adv-x="690" d="M650 0H450L239 280L160 200V0H0V700H160V424L430 700H650L352 396L650 0Z" />
<glyph unicode="l" glyph-name="l" horiz-adv-x="640" d="M600 0H0V700H160V160H600V0Z" />
<glyph unicode="m" glyph-name="m" horiz-adv-x="790" d="M750 0H590V317L425 0H325L160 317V0H0V700H160L375 270L590 700H750V0Z" />
<glyph unicode="n" glyph-name="n" horiz-adv-x="690" d="M650 0H490L160 397V0H0V700H160L490 303V700H650V0Z" />
<glyph unicode="o" glyph-name="o" horiz-adv-x="740" d="M700 350Q700 205 598 103T350 0Q205 0 103 102T0 350Q0 495 102 597T350 700Q495 700 597 598T700 350ZM540 350Q540 429 485 484T350 540Q272 540 216 485T160 350Q160 271 216 216T350 160Q429 160
484 215T540 350Z" />
<glyph unicode="p" glyph-name="p" horiz-adv-x="690" d="M650 485Q650 396 587 333T435 270H180L250 430H435Q458 430 474 446T490 485Q490 508 474 524T435 540H160V0H0V700H435Q524 700 587 637T650 485Z" />
<glyph unicode="q" glyph-name="q" horiz-adv-x="740" d="M700 0H350Q205 0 103 102T0 350Q0 495 102 597T350 700Q495 700 597 598T700 350Q700 247 644 160H700V0ZM540 350Q540 429 485 484T350 540Q272 540 216 485T160 350Q160 271 216 216T350 160Q429 160
484 215T540 350Z" />
<glyph unicode="r" glyph-name="r" horiz-adv-x="690" d="M650 0H428L180 270L250 430H435Q458 430 474 446T490 485Q490 508 474 524T435 540H160V0H0V700H435Q524 700 587 637T650 485Q650 396 587 333T435 270H399L650 0Z" />
<glyph unicode="s" glyph-name="s" horiz-adv-x="690" d="M650 215Q650 126 587 63T435 0H0V160H435Q458 160 474 176T490 215Q490 238 474 254T435 270H215Q126 270 63 333T0 485Q0 574 63 637T215 700H650L580 540H215Q192 540 176 524T160 485Q160 462 176
446T215 430H435Q524 430 587 367T650 215Z" />
<glyph unicode="t" glyph-name="t" horiz-adv-x="690" d="M650 700L580 540H405V0H245V540H0V700H650Z" />
<glyph unicode="u" glyph-name="u" horiz-adv-x="690" d="M650 350Q650 208 556 104T325 0Q187 0 94 104T0 350V700H160V350Q160 274 207 217T325 160Q397 160 443 217T490 350V700H650V350Z" />
<glyph unicode="v" glyph-name="v" horiz-adv-x="790" d="M750 700L440 0H310L0 700H180L375 260L570 700H750Z" />
<glyph unicode="w" glyph-name="w" horiz-adv-x="1090" d="M1050 700L740 0H610L525 192L440 0H310L0 700H180L375 260L435 395L300 700H480L525 598L570 700H750L615 395L675 260L870 700H1050Z" />
<glyph unicode="x" glyph-name="x" horiz-adv-x="740" d="M700 0H500L350 210L200 0H0L250 350L0 700H200L350 490L500 700H700L450 350L700 0Z" />
<glyph unicode="y" glyph-name="y" horiz-adv-x="740" d="M700 700L430 325V0H270V325L0 700H200L350 490L500 700H700Z" />
<glyph unicode="z" glyph-name="z" horiz-adv-x="690" d="M650 0H0V160L372 540H0V700H650V540L278 160H650V0Z" />
</font>
</defs>
</svg>
